HIERARCHY
ROOT Hips
{
  OFFSET 196.326 95.9168 97.7182
  CHANNELS 6 Xposition Yposition Zposition Zrotation Xrotation Yrotation
  JOINT LeftUpLeg
  {
    OFFSET 8.64259 1.95398 -2.38835
    CHANNELS 3 Zrotation Xrotation Yrotation
    JOINT LeftLeg
    {
      OFFSET 43.7702 0 0
      CHANNELS 3 Zrotation Xrotation Yrotation
      JOINT LeftFoot
      {
        OFFSET 40.6238 0 0
        CHANNELS 3 Zrotation Xrotation Yrotation
        JOINT LeftToeBase
        {
          OFFSET 12.7242 0 0
          CHANNELS 3 Zrotation Xrotation Yrotation
          End Site
          {
            OFFSET 0 0 0
          }
        }
      }
    }
  }
  JOINT RightUpLeg
  {
    OFFSET -8.2249 1.95398 -2.59336
    CHANNELS 3 Zrotation Xrotation Yrotation
    JOINT RightLeg
    {
      OFFSET 43.5653 0 0
      CHANNELS 3 Zrotation Xrotation Yrotation
      JOINT RightFoot
      {
        OFFSET 40.6238 0 0
        CHANNELS 3 Zrotation Xrotation Yrotation
        JOINT RightToeBase
        {
          OFFSET 12.7242 0 0
          CHANNELS 3 Zrotation Xrotation Yrotation
          End Site
          {
            OFFSET 0 0 0
          }
        }
      }
    }
  }
  JOINT Spine
  {
    OFFSET 0.165834 0.87714 6.61349
    CHANNELS 3 Zrotation Xrotation Yrotation
    JOINT Spine1
    {
      OFFSET 7.38963 1.71661e-005 0
      CHANNELS 3 Zrotation Xrotation Yrotation
      JOINT Spine2
      {
        OFFSET 11.9445 1.14441e-005 0
        CHANNELS 3 Zrotation Xrotation Yrotation
        JOINT Spine3
        {
          OFFSET 14.7254 4.19617e-005 0
          CHANNELS 3 Zrotation Xrotation Yrotation
          JOINT Spine4
          {
            OFFSET 10.9679 0 0
            CHANNELS 3 Zrotation Xrotation Yrotation
            JOINT RightShoulder
            {
              OFFSET 2.46616 -1.6653 3.69651
              CHANNELS 3 Zrotation Xrotation Yrotation
              JOINT RightArm
              {
                OFFSET 13.0012 0 0
                CHANNELS 3 Zrotation Xrotation Yrotation
                JOINT RightForeArm
                {
                  OFFSET 28.7848 1.52588e-005 0
                  CHANNELS 3 Zrotation Xrotation Yrotation
                  JOINT RightHand
                  {
                    OFFSET 26.5688 1.52588e-005 0
                    CHANNELS 3 Zrotation Xrotation Yrotation
                    End Site
                    {
                      OFFSET 0 0 0
                    }
                  }
                }
              }
            }
            JOINT LeftShoulder
            {
              OFFSET 2.38034 -1.29275 -3.75231
              CHANNELS 3 Zrotation Xrotation Yrotation
              JOINT LeftArm
              {
                OFFSET 16.3182 6.10351e-005 0
                CHANNELS 3 Zrotation Xrotation Yrotation
                JOINT LeftForeArm
                {
                  OFFSET 27.0901 0 0
                  CHANNELS 3 Zrotation Xrotation Yrotation
                  JOINT LeftHand
                  {
                    OFFSET 24.5451 1.52588e-005 0
                    CHANNELS 3 Zrotation Xrotation Yrotation
                    End Site
                    {
                      OFFSET 0 0 0
                    }
                  }
                }
              }
            }
            JOINT Neck
            {
              OFFSET 5.0226 -0.0266342 0
              CHANNELS 3 Zrotation Xrotation Yrotation
              JOINT Head
              {
                OFFSET 6.69363 2.86102e-005 0
                CHANNELS 3 Zrotation Xrotation Yrotation
                End Site
                {
                  OFFSET 0 0 0
                }
              }
            }
          }
        }
      }
    }
  }
}
MOTION
Frames:	15
Frame Time:	0.0416667
-285.465 86.3696 -299.474 -73.1214 -13.818 -96.9688 -168.938 16.624 100.342 33.8152 80.4994 -48.9576 -10.42 -55.6929 -11.6899 -166.347 54.0049 -86.5842 155.051 48.9137 69.3783 -52.2346 -3.00564 14.0395 86.6102 -8.98805 -3.90804 58.114 42.2323 118.745 2.04713 6.12129 -90.1764 14.6572 3.96531 -0.925669 2.99186 3.92079 -1.09956 -19.5919 4.05991 0.31086 0.420707 4.05991 0.310853 117.437 -30.2223 -51.3403 50.2539 5.12087 25.6897 -27.635 -3.12532 -75.1837 -27.1998 1.27755 -10.0673 -126.893 -16.835 0.940383 -40.7031 46.5587 5.09313 135.792 42.2698 -179.919 18.2675 8.74543 41.6082 43.9827 -0.694063 62.6925 -48.7678 -16.4945 -52.9407 
-281.656 89.9712 -296.939 -77.8802 -2.05046 -98.577 172.841 5.50046 95.4396 -12.7771 41.5304 3.31135 0.602847 -26.7604 -17.1496 164.347 53.7693 -71.8905 169.381 43.0619 68.4993 -43.3088 5.29044 9.384 70.4742 -2.76586 -1.29406 30.5964 1.71702 23.832 -1.64491 7.18284 -90.9988 12.4691 -3.74053 -1.53351 0.803937 -3.80449 -1.36722 -21.7631 -3.10654 -2.58729 -1.75041 -3.10654 -2.58731 103.434 -23.1177 -78.9258 57.9795 -9.02238 26.4538 -16.9187 -1.85769 -77.9465 -23.7796 -1.60571 3.10066 -132.275 -31.6604 8.25049 -12.3501 2.19039 17.0868 88.2613 -19.1313 -92.897 -51.1812 17.8209 -44.9905 57.5942 15.5428 36.4483 -33.7166 -1.92967 -38.0818 
-276.927 92.3765 -292.391 -80.1311 17.1036 -94.7872 173.525 6.05497 93.5697 -26.8937 27.6598 4.61507 24.1544 -16.3871 -10.3457 127.64 54.4911 -48.2586 179.856 37.0083 78.5425 -25.7285 11.084 0.565525 53.4259 4.74756 3.48275 13.9616 -3.66372 8.91285 -2.09328 7.79278 -90.5296 11.2831 -4.4121 -0.61503 -0.380583 -4.43488 -0.419894 -22.9659 -4.02311 -1.91455 -2.95327 -4.02313 -1.91456 94.5276 -28.8186 -97.8625 56.3854 -11.2052 29.9522 -16.4906 -1.31506 -78.6714 -23.0966 -1.20783 1.37698 -109.443 -35.5533 42.4611 -20.5377 -10.959 17.9149 16.1128 -4.08663 -105.395 20.7882 -1.80497 -6.39288 46.1912 5.68111 15.4845 -21.6232 -0.106173 -22.1145 
-270.874 93.513 -286.193 -79.7531 39.0638 -94.1571 -179.047 8.49998 90.2124 -32.4101 23.6774 2.55028 44.6436 -6.98033 4.13469 80.2147 42.6089 -18.3315 -177.225 33.8417 87.1038 -22.2832 2.03286 -2.54589 64.3271 -0.826792 -0.323552 -19.0102 -15.8543 23.7367 -0.326729 7.53148 -90.0019 11.8171 -0.650914 0.0578939 0.146011 -0.647741 0.0864692 -22.3884 -0.638254 -0.140404 -2.37575 -0.638245 -0.140396 89.666 -38.338 -104.54 48.5676 -11.2027 33.7485 -14.8604 0.347083 -82.1651 -23.3486 -1.18711 1.10155 -102.359 -36.8846 54.6243 -26.7882 -3.27013 19.327 12.7162 -5.17281 -108.294 30.808 2.78252 5.55959 26.5923 2.37187 9.59528 -5.59416 -1.34522 -10.7053 
-262.982 92.355 -278.196 -82.2422 45.5035 -92.7093 -177.426 13.7559 87.7098 -39.0827 17.9564 1.84938 59.2241 7.26666 16.2531 62.8667 31.0374 -12.9856 -176.682 31.3961 89.6 -38.6632 8.55428 -4.50881 73.452 -5.17685 -2.58635 -8.00905 -19.3446 39.6869 0.197947 7.42981 -89.7725 12.0133 0.500971 0.39918 0.342347 0.518038 0.376747 -22.1928 0.357824 0.531279 -2.18012 0.357834 0.531286 85.5897 -47.575 -108.304 36.973 -14.7316 29.7085 -13.7185 0.841563 -84.2188 -23.2198 -1.43769 2.33655 -99.9685 -38.5861 59.3434 -31.4944 3.47175 20.8976 14.9166 -5.79673 -100.307 29.227 2.37986 4.34471 16.0933 3.03026 2.54738 2.10326 2.12673 -1.39022 
-254.923 90.0174 -270.385 -84.0914 46.9619 -91.6301 -176.134 23.8173 86.988 -47.8474 15.5199 0.694634 60.4667 9.7507 19.1003 61.1065 28.6081 -15.4287 -179.05 29.1476 90.3013 -58.0093 17.1042 -4.79382 66.0436 -4.49191 -2.44281 45.1494 3.21936 14.3036 0.316548 7.40679 -89.6116 12.0572 0.812897 0.687391 0.386338 0.842368 0.650949 -22.1483 0.568737 0.899917 -2.13565 0.568729 0.899912 80.2402 -52.2316 -114.677 27.3991 -16.0521 21.0852 -11.8665 1.86642 -87.1345 -23.1631 -1.6723 3.46136 -97.5954 -39.3793 63.55 -36.613 8.14016 21.2003 13.1641 -4.996 -87.5891 30.265 2.72218 5.32733 17.5106 3.46718 -2.44498 -2.46411 4.10389 0.780722 
-247.364 88.2187 -263.317 -87.5 49.667 -89.7468 -173.707 28.9983 86.837 -50.1537 13.7258 -0.592095 63.8425 13.7923 21.7114 55.7598 22.0056 -22.9446 178.946 20.1718 89.2301 -66.3337 15.5754 -5.29773 60.5425 -4.05373 -2.32992 49.2176 2.47557 10.3862 0.895022 7.65383 -89.5018 11.5606 2.0136 0.783345 -0.109008 2.04614 0.693928 -22.6515 1.6851 1.3524 -2.63882 1.6851 1.3524 80.4821 -50.5487 -114.977 24.1364 -19.4426 10.0511 -23.2355 4.84148 -89.4184 -29.4728 -2.26177 4.35325 -98.0082 -39.1988 62.8037 -41.2503 10.615 23.6173 4.66605 1.68683 -68.8824 37.3233 2.7428 3.36291 19.4967 1.71905 -3.07351 -4.50456 2.62643 1.21963 
-240.603 89.544 -256.791 -88.3938 50.2521 -89.5712 -174.412 30.8478 86.8582 -42.2797 12.5051 -0.559095 61.1107 9.27234 18.2278 45.4762 14.1347 -25.416 175.84 7.63253 86.3611 -59.0761 10.7439 -4.55054 58.4456 -2.35227 -1.34301 50.8657 2.52738 8.77582 1.35964 7.5626 -89.6663 11.748 2.86096 0.364293 0.0802597 2.87423 0.237914 -22.4768 2.61911 1.20785 -2.46416 2.61912 1.20785 85.5013 -42.7664 -110.093 28.3792 -22.5204 3.61564 -22.3314 10.764 -98.9275 -26.9784 -1.89157 3.44724 -98.8638 -41.5515 62.4113 -45.4189 11.286 32.5343 1.36632 -1.94377 -70.3574 38.1758 3.56581 5.50925 18.8727 0.746028 2.27399 -5.43255 0.00554808 -2.49224 
-232.342 93.221 -249.556 -86.5547 50.8835 -90.7762 -175.751 26.8584 89.7045 -17.0205 15.442 -0.35883 47.184 -5.31811 7.52531 29.0225 2.21785 -21.5375 176.539 0.107531 87.4125 -46.0983 2.99984 -4.76698 54.1321 0.194776 0.403837 49.2965 2.56881 11.0056 1.86303 7.48917 -89.734 11.8995 3.82986 0.119089 0.234214 3.8314 -0.0498511 -22.3426 3.61677 1.26613 -2.32995 3.61677 1.26612 85.5569 -41.4433 -110.492 27.3212 -23.9294 2.79107 -26.4972 15.1651 -106.797 -25.41 -1.95703 4.50184 -95.528 -39.6914 67.0587 -50.1713 11.2716 37.2938 0.256022 -2.73815 -74.2866 40.9264 3.25572 4.04736 17.2819 -0.975372 3.56145 -4.73091 -2.01423 -2.29419 
-223.561 95.8114 -241.88 -79.8043 49.7477 -94.7168 -175.229 29.8938 92.4007 -6.27746 22.9601 -1.69791 43.8138 -10.4522 1.00408 41.3465 13.1636 -6.43845 179.538 1.11335 91.2864 -36.3777 -5.55518 -4.38869 44.3951 3.03189 2.93938 49.1816 2.98702 14.6057 1.73266 7.07081 -89.9062 12.7411 3.48609 -0.227769 1.07474 3.47268 -0.381175 -21.4964 3.39317 0.831701 -1.48376 3.39317 0.831701 85.8055 -41.4712 -110.067 27.5895 -28.6522 4.91667 -26.429 16.8285 -107.395 -25.6904 -1.8399 3.75855 -92.6852 -38.6282 71.4116 -52.81 7.82449 39.0151 0.98933 -3.18356 -78.778 41.7133 3.16255 3.64848 15.3663 -1.0085 5.10317 -3.34594 -2.47788 -3.69242 
-214.037 96.3688 -234.121 -79.5404 47.3062 -97.0508 -175.573 30.5774 90.6979 -19.5435 20.0503 -0.951482 50.6092 -3.84056 8.37937 47.8761 20.9316 -0.371008 -179.832 4.61821 92.7202 -37.137 -7.90386 -4.27982 47.0634 2.7519 2.55574 39.8387 1.17082 15.5916 1.30514 7.25799 -89.7523 12.3591 2.71131 0.188647 0.691035 2.717 0.0690439 -21.8645 2.52917 0.995304 -1.85186 2.52918 0.9953 85.1957 -42.7057 -110.619 30.3877 -27.7848 11.9294 -22.4176 14.2008 -105.363 -22.278 -1.50668 3.25968 -94.2919 -40.0303 69.2181 -50.4139 5.91972 37.1951 2.71759 -3.32704 -83.2453 41.2966 3.6705 5.04611 15.5493 -0.483632 5.50317 -1.77072 -2.1199 -3.24537 
-204.074 94.7783 -225.876 -82.7823 47.0574 -98.063 -173.178 28.7093 88.6465 -40.7686 13.7565 -1.48491 51.9161 -2.59826 8.43986 48.5441 22.3351 2.15407 -179.611 10.1479 91.723 -41.9328 -2.99134 -4.40267 53.5528 0.654085 0.67512 49.4753 3.64875 19.0458 0.980753 7.56595 -89.3608 11.7334 2.25087 1.03863 0.0640823 2.29441 0.938511 -22.4793 1.83466 1.66719 -2.46662 1.83467 1.66719 83.5923 -46.2355 -111.885 30.9937 -23.9148 19.6085 -20.7777 10.7944 -96.4033 -19.603 -1.40899 3.54489 -94.2192 -39.8678 69.2784 -46.7654 7.77549 33.1838 8.3504 -2.26598 -84.2122 39.0759 3.47585 5.03156 14.0363 0.381203 3.11924 -0.226537 -0.504706 -1.03826 
-194.794 92.3672 -218.314 -83.1221 45.0263 -98.8387 -171.995 25.2665 89.2438 -57.2902 14.326 -1.00865 49.1817 -3.49544 9.29963 52.1217 25.6092 0.0729227 179.656 18.2035 92.939 -47.5856 5.64628 -3.16351 67.084 -3.21074 -1.7415 47.2243 3.21381 20.4995 0.460323 7.58783 -89.2552 11.6891 1.265 1.35213 0.0180853 1.3233 1.29512 -22.5138 0.800217 1.66974 -2.50113 0.800216 1.66972 82.8242 -47.9671 -112.43 31.2575 -20.4442 24.8688 -20.8808 2.39708 -85.8952 -19.7137 -1.26939 2.78305 -95.0248 -40.4167 68.1497 -41.3408 8.46873 29.085 8.31676 -3.28036 -87.31 38.7617 4.17417 6.96351 14.3734 1.62388 2.1649 -0.120237 1.01536 0.0992851 
-186.113 90.0333 -210.232 -82.7586 44.9965 -97.6785 -170.956 19.1965 92.7555 -65.8565 12.9772 -0.23232 46.5959 -5.10664 7.22872 41.4146 14.2543 1.62847 -179.961 27.7709 95.4405 -51.8038 9.89789 -2.59867 71.6926 -4.47098 -2.25612 46.1106 2.91754 20.0876 0.0830164 7.6277 -89.4063 11.6143 0.443341 1.13752 -0.0570325 0.49298 1.1169 -22.5883 0.0810049 1.21816 -2.57562 0.081011 1.21816 81.3071 -49.7051 -114.067 29.4088 -19.2781 26.8089 -18.1752 -5.25294 -73.3934 -20.4006 -1.36899 3.20401 -97.2353 -41.4451 64.9608 -34.0146 6.21174 23.5455 9.54816 -3.0858 -89.9566 39.5294 4.44415 7.43991 16.7682 2.97039 -0.00496175 -2.2677 2.97714 2.60665 
-177.305 89.9284 -202.281 -84.2627 44.6128 -96.0791 -171.023 7.24453 94.9826 -58.6218 12.2577 0.376438 36.8976 -12.1602 0.579478 33.6504 5.43657 -0.56463 179.517 32.4237 95.522 -48.1557 9.16937 -1.06579 72.7607 -4.20976 -2.1503 32.7234 -0.328574 19.0831 -0.38496 7.68494 -89.3985 11.5072 -0.484347 1.25029 -0.164329 -0.428852 1.27038 -22.6965 -0.83773 1.04695 -2.68388 -0.837713 1.04695 80.6878 -49.8999 -114.914 32.4256 -18.34 32.0508 -16.63 -6.00625 -70.3059 -20.8028 -1.37223 3.06065 -96.4939 -38.8021 65.1232 -31.1497 7.58042 18.9328 8.27674 -4.82931 -93.9309 39.3706 4.13635 6.67954 15.9547 4.14221 -2.85758 -2.93063 4.97316 4.73231 
